<svg xmlns="http://www.w3.org/2000/svg" viewBox="0 0 512 512" role="img" aria-label="LDS Scripture Scholar icon">
  <defs>
    <linearGradient id="bg" x1="0" y1="0" x2="1" y2="1">
      <stop offset="0%" stop-color="#0f172a" />
      <stop offset="100%" stop-color="#1e3a5f" />
    </linearGradient>
    <linearGradient id="accent" x1="0" y1="0" x2="1" y2="1">
      <stop offset="0%" stop-color="#fbbf24" />
      <stop offset="100%" stop-color="#fde68a" />
    </linearGradient>
  </defs>
  <rect width="512" height="512" rx="112" fill="url(#bg)" />
  <rect x="110" y="88" width="292" height="336" rx="28" fill="#0f172a" stroke="url(#accent)" stroke-width="10" />
  <path d="M170 146h172c18 0 32 14 32 32v178c-10-12-24-18-40-18H170c-16 0-30 6-40 18V178c0-18 14-32 40-32Z" fill="#f8fafc" fill-opacity="0.96" />
  <path d="M170 146h156c18 0 32 14 32 32v178c-10-12-24-18-40-18H170c-16 0-30 6-40 18V178c0-18 14-32 40-32Z" fill="#e2e8f0" fill-opacity="0.92" />
  <rect x="162" y="170" width="148" height="16" rx="8" fill="#cbd5e1" />
  <rect x="162" y="206" width="180" height="16" rx="8" fill="#cbd5e1" />
  <rect x="162" y="242" width="160" height="16" rx="8" fill="#cbd5e1" />
  <rect x="162" y="278" width="128" height="16" rx="8" fill="#cbd5e1" />
  <path d="M256 106l28 56h62l-50 38 19 60-59-38-59 38 19-60-50-38h62z" fill="url(#accent)" opacity="0.95" />
  <circle cx="256" cy="346" r="54" fill="#0f172a" />
  <path d="M256 304l10 24h26l-20 16 8 24-24-16-24 16 8-24-20-16h26z" fill="url(#accent)" />
</svg>
